<?xml version="1.0" encoding="utf-8"?>
<!-- Generator: Adobe Illustrator 25.1.0, SVG Export Plug-In . SVG Version: 6.00 Build 0)  -->
<svg version="1.1" id="Layer_1" xmlns="http://www.w3.org/2000/svg" xmlns:xlink="http://www.w3.org/1999/xlink" x="0px" y="0px"
	 viewBox="0 0 212.7 89.3" style="enable-background:new 0 0 212.7 89.3;" xml:space="preserve">
<style type="text/css">
	.st0{fill:#1D1D1B;}
	.st1{fill-rule:evenodd;clip-rule:evenodd;fill:#E42925;}
	.st2{fill-rule:evenodd;clip-rule:evenodd;fill:#1D1D1B;}
</style>
<g>
	<g>
		<path class="st0" d="M108.7,27.2c0,0.2,0,0.5,0,0.7c-0.1,2.1-0.8,3.8-3.3,3.8c-3.6,0-3.8-2.3-3.8-5.4v-1.7c0.1-3,0.3-5.2,3.8-5.2
			c2,0,3,1,3.2,3c0,0.3,0.1,0.6,0,0.9h-2.2c-0.1-0.8,0-2.2-1.1-2.2c-1.7,0-1.6,2-1.6,3v3.3c0,1,0.1,2.5,1.6,2.5
			c1.2,0,1.1-1.9,1.1-2.7H108.7z"/>
		<path class="st0" d="M109.5,31.4l2.8-11.7h3l2.7,11.7h-2.3l-0.6-3h-2.6l-0.6,3H109.5z M113.9,16.4h2.4l-2.3,2.3h-1.6L113.9,16.4z
			 M112.8,26.7h1.9l-0.6-3.3c-0.1-0.5-0.2-1.1-0.2-1.6c0-0.3,0-0.5-0.1-0.8h0c0,0.3-0.1,0.5-0.1,0.8c-0.1,0.5-0.1,1.1-0.2,1.6
			L112.8,26.7z"/>
		<path class="st0" d="M121.3,31.4h-2.2V19.7h3.5l1.2,5.4c0.2,0.9,0.3,1.8,0.4,2.7h0c0.1-1.2,0.2-1.9,0.3-2.7l1.2-5.4h3.5v11.7H127
			v-3.7c0-2.3,0-4.7,0.2-7h0l-2.3,10.7h-1.3l-2.3-10.7h-0.1c0.1,2.3,0.2,4.7,0.2,7V31.4z"/>
		<path class="st0" d="M130.4,31.4l2.8-11.7h3l2.7,11.7h-2.3l-0.6-3h-2.6l-0.6,3H130.4z M133.7,26.7h1.9l-0.6-3.3
			c-0.1-0.5-0.2-1.1-0.2-1.6c0-0.3,0-0.5-0.1-0.8h0c0,0.3-0.1,0.5-0.1,0.8c-0.1,0.5-0.1,1.1-0.2,1.6L133.7,26.7z"/>
		<path class="st0" d="M142.2,26.4v5H140V19.7h4.1c1.9,0,3.3,0.7,3.3,2.8c0,1.3-0.3,2.6-1.8,2.8v0c1.3,0.2,1.7,1,1.7,2.1
			c0,0.5-0.1,3.4,0.5,3.7v0.2h-2.4c-0.3-0.8-0.2-2.2-0.2-3c0-0.7,0-1.7-0.8-1.9c-0.6-0.2-1.2-0.2-1.9-0.2H142.2z M142.2,24.7h1.7
			c0.7,0,1.3-0.5,1.3-1.7c0-1.3-0.5-1.5-1.4-1.5h-1.6V24.7z"/>
		<path class="st0" d="M148.6,31.4l2.8-11.7h3l2.7,11.7h-2.3l-0.6-3h-2.6l-0.6,3H148.6z M151.9,26.7h1.9l-0.6-3.3
			c-0.1-0.5-0.2-1.1-0.2-1.6c0-0.3,0-0.5-0.1-0.8h0c0,0.3-0.1,0.5-0.1,0.8c-0.1,0.5-0.1,1.1-0.2,1.6L151.9,26.7z"/>
		<path class="st0" d="M101.8,50.2V38.5h2.2v11.7H101.8z"/>
		<path class="st0" d="M111.3,38.5h2.2v11.7h-2.3l-1.7-4.2c-0.6-1.4-1-2.8-1.6-4.7h0c0.1,1,0.2,2.2,0.2,3.3c0.1,1.2,0.1,2.3,0.1,3.3
			v2.2h-2.2V38.5h2.3l1.7,4.3c0.6,1.4,1,2.8,1.6,4.7h0c-0.1-1.1-0.2-2.2-0.2-3.3c-0.1-1.1-0.1-2.3-0.1-3.3V38.5z"/>
		<path class="st0" d="M117.8,50.2h-2.2V38.5h3.5l1.2,5.4c0.2,0.9,0.3,1.8,0.4,2.7h0c0.1-1.2,0.2-1.9,0.3-2.7l1.2-5.4h3.5v11.7h-2.2
			v-3.7c0-2.3,0-4.7,0.2-7h0l-2.3,10.7H120l-2.3-10.7h-0.1c0.1,2.3,0.2,4.7,0.2,7V50.2z"/>
		<path class="st0" d="M127.7,43.4c0.1-3,0.3-5.2,3.8-5.2s3.7,2.2,3.8,5.2v1.7c0,3.1-0.2,5.4-3.8,5.4c-3.6,0-3.8-2.3-3.8-5.4V43.4z
			 M130,46.2c0,1,0.1,2.5,1.6,2.5c1.6,0,1.6-1.6,1.6-2.7v-3c0-0.9,0-3-1.6-3c-1.7,0-1.6,2-1.6,3V46.2z"/>
		<path class="st0" d="M137.3,50.2V38.5h3.5c0.9,0,1.9,0.1,2.5,0.9c0.5,0.6,0.6,1.3,0.6,2.1c0,1-0.2,2-1.4,2.5v0
			c1.2,0.2,1.7,1.2,1.7,2.7c0,0.5,0,1-0.2,1.4c-0.5,1.5-1.3,2.1-2.9,2.1H137.3z M139.9,43.2c0.5,0,1.2,0,1.6-0.4
			c0.2-0.3,0.2-0.7,0.2-1.3c0-0.9-0.2-1.3-1.2-1.3h-1v3H139.9z M140,48.5c0.5,0,0.9,0,1.3-0.1c0.6-0.3,0.7-1,0.7-1.6
			c0-1.3-0.3-1.8-1.6-1.8h-0.8v3.5H140z"/>
		<path class="st0" d="M146.1,50.2V38.5h2.2v11.7H146.1z"/>
		<path class="st0" d="M150.4,50.2V38.5h2.2v10h4.1v1.7H150.4z"/>
		<path class="st0" d="M158.2,50.2V38.5h2.2v11.7H158.2z"/>
		<path class="st0" d="M161.7,50.2l2.8-11.7h3l2.7,11.7h-2.3l-0.6-3h-2.6l-0.6,3H161.7z M164.9,45.5h1.9l-0.6-3.3
			c-0.1-0.5-0.2-1.1-0.2-1.6c0-0.3,0-0.5-0.1-0.8h0c0,0.3-0.1,0.5-0.1,0.8c-0.1,0.5-0.1,1.1-0.2,1.6L164.9,45.5z"/>
		<path class="st0" d="M173.4,45.1v5h-2.2V38.5h4.1c1.9,0,3.3,0.7,3.3,2.8c0,1.3-0.3,2.6-1.8,2.8v0c1.3,0.2,1.7,1,1.7,2.1
			c0,0.5-0.1,3.4,0.5,3.7v0.2h-2.4c-0.3-0.8-0.2-2.2-0.2-3c0-0.7,0-1.7-0.8-1.9c-0.6-0.2-1.2-0.2-1.9-0.2H173.4z M173.4,43.4h1.7
			c0.7,0,1.3-0.5,1.3-1.7c0-1.3-0.5-1.5-1.4-1.5h-1.6V43.4z"/>
		<path class="st0" d="M180.8,50.2V38.5h2.2v11.7H180.8z"/>
		<path class="st0" d="M184.2,50.2l2.8-11.7h3l2.7,11.7h-2.3l-0.6-3h-2.6l-0.6,3H184.2z M187.5,45.5h1.9l-0.6-3.3
			c-0.1-0.5-0.2-1.1-0.2-1.6c0-0.3,0-0.5-0.1-0.8h0c0,0.3-0.1,0.5-0.1,0.8c-0.1,0.5-0.1,1.1-0.2,1.6L187.5,45.5z"/>
		<path class="st0" d="M107,57.2h2.2v8.2c0,2.6-0.8,3.8-3.7,3.8c-2.9,0-3.7-1.2-3.7-3.8v-8.2h2.2v8c0,1.1,0.1,2.3,1.6,2.3
			c1.4,0,1.5-1.1,1.5-2.3V57.2z"/>
		<path class="st0" d="M113.5,63.9v5h-2.2V57.2h4.1c1.9,0,3.3,0.7,3.3,2.8c0,1.3-0.3,2.6-1.8,2.8v0c1.3,0.2,1.7,1,1.7,2.1
			c0,0.5-0.1,3.4,0.5,3.7v0.2h-2.4c-0.3-0.8-0.2-2.2-0.2-3c0-0.7,0-1.7-0.8-1.9c-0.6-0.2-1.2-0.2-1.9-0.2H113.5z M113.5,62.2h1.7
			c0.7,0,1.3-0.5,1.3-1.7c0-1.3-0.5-1.5-1.4-1.5h-1.6V62.2z"/>
		<path class="st0" d="M126.1,57.2h2.2v8.2c0,2.6-0.8,3.8-3.7,3.8c-2.9,0-3.7-1.2-3.7-3.8v-8.2h2.2v8c0,1.1,0.1,2.3,1.6,2.3
			c1.4,0,1.5-1.1,1.5-2.3V57.2z"/>
		<path class="st0" d="M130.2,62.1c0.1-3,0.3-5.2,3.8-5.2c1.9,0,3.2,0.5,3.7,2.5c0.1,0.5,0.1,1,0.1,1.4h-2.2c0-1.2-0.1-2.1-1.6-2.2
			c-1.7,0-1.6,2-1.6,3v3.3c0,1,0.1,2.5,1.6,2.5c1.3,0,1.7-1.3,1.6-3.1h-1.5v-1.7h3.6v6.3h-1.6v-1.3h0c-0.4,1.2-1.3,1.6-2.1,1.6
			c-3.6,0-3.8-2.3-3.8-5.4V62.1z"/>
		<path class="st0" d="M145.2,57.2h2.2v8.2c0,2.6-0.8,3.8-3.7,3.8c-2.9,0-3.7-1.2-3.7-3.8v-8.2h2.2v8c0,1.1,0.1,2.3,1.6,2.3
			c1.4,0,1.5-1.1,1.5-2.3V57.2z"/>
		<path class="st0" d="M148.6,68.9l2.8-11.7h3l2.7,11.7h-2.3l-0.6-3h-2.6l-0.6,3H148.6z M151.9,64.3h1.9l-0.6-3.3
			c-0.1-0.5-0.2-1.1-0.2-1.6c0-0.3,0-0.5-0.1-0.8h0c0,0.3-0.1,0.5-0.1,0.8c-0.1,0.5-0.1,1.1-0.2,1.6L151.9,64.3z"/>
		<path class="st0" d="M160.1,60.3c0.2,0.6,0.4,1.2,0.5,1.8h0c0.2-0.9,0.5-1.6,0.7-2.2l1-2.7h2.4l-3.1,6.7v5h-2.2v-5l-3-6.7h2.4
			L160.1,60.3z"/>
		<path class="st0" d="M164.3,68.9l2.8-11.7h3l2.7,11.7h-2.3l-0.6-3h-2.6l-0.6,3H164.3z M167.5,64.3h1.9l-0.6-3.3
			c-0.1-0.5-0.2-1.1-0.2-1.6c0-0.3,0-0.5-0.1-0.8h0c0,0.3-0.1,0.5-0.1,0.8c-0.1,0.5-0.1,1.1-0.2,1.6L167.5,64.3z"/>
	</g>
	<g>
		<path class="st1" d="M45.5,1.1c24,0,43.5,19.5,43.5,43.5S69.5,88.1,45.5,88.1S2,68.7,2,44.6S21.5,1.1,45.5,1.1L45.5,1.1z
			 M49.6,16.7C68,16.7,82.9,31.6,82.9,50c0,18.4-14.9,33.3-33.3,33.3c-18.4,0-33.3-14.9-33.3-33.3C16.3,31.6,31.2,16.7,49.6,16.7
			L49.6,16.7z"/>
		<polygon class="st1" points="42.9,44.3 58,35.7 74.1,44.3 74.1,36.3 58,27.7 58,27.7 58,27.7 58,27.7 58,27.7 51.1,31.6 
			42.9,36.5 42.9,37.6 42.9,44.3 		"/>
		<path class="st2" d="M51.1,31.6l-1.3,0.7v-3.2h-6.9v7.2v0.2L51.1,31.6L51.1,31.6z M51.1,31.6L51.1,31.6L51.1,31.6L51.1,31.6z
			 M66.1,45.1h4.1h-2.9h3.5h0.6h1.2H72h1.8v4.1c-1.2,0.5-1.1,0.7-1.1,3v5.8h0v3.1c0,4.4-3.6,8-8,8h0c-4.4,0-8.1-3.6-8.1-8v-2.7v-0.2
			v-6c0-2.3-0.3-2.6-1.5-3v-4.1h4.1h-2.9h3.5h0.6H64h-2.9h4.1v4.1c-1.2,0.5-1.1,0.7-1.1,3v6.2h0v4.3c0,0.9,0.8,1.7,1.7,1.7l0,0
			c0.9,0,1.8-0.8,1.8-1.7v-4.3v-0.4v-5.8c0-2.3-0.3-2.6-1.5-3V45.1L66.1,45.1z M42.9,45.1h4.3h-3.1h3.7h0.6h3.7h-3.1h4.3v4.1
			c-1.3,0.5-1.6,0.7-1.6,3V62c0,2.3,0.3,2.4,1.6,3v4.2h-4.3h3.1h-3.7h-0.6h-3.7h3.1h-4.3V65c1.3-0.6,1.6-0.8,1.6-3v-9.7
			c0-2.3-0.3-2.6-1.6-3V45.1L42.9,45.1z M32.6,44.9c1,0,1.9,0.3,2.7,0.7v-1h5.2v9.8h-0.2l0,0.1h-5.6v-3.4c0-0.8-0.7-1.5-1.6-1.5h0
			c-0.9,0-1.6,0.7-1.6,1.5v11.8c0,0.8,0.7,1.5,1.6,1.5h0c0.9,0,1.6-0.7,1.6-1.5v-5.2h5.8l0,5.7c0,3.9-3.6,6.3-7.9,6.2
			c-5.5-0.2-7.9-5.5-7.9-12.3c0-3.9,0.9-7.6,2.7-9.9C28.7,45.6,30.7,44.9,32.6,44.9L32.6,44.9z"/>
	</g>
</g>
</svg>
